grf
version=1
nRows=43
nColumns=19
inDegrees=yes
endheader
time	ground_force_1_vx	ground_force_1_vy	ground_force_1_vz	ground_force_1_px	ground_force_1_py	ground_force_1_pz	ground_moment_1_mx	ground_moment_1_my	ground_moment_1_mz	ground_force_2_vx	ground_force_2_vy	ground_force_2_vz	ground_force_2_px	ground_force_2_py	ground_force_2_pz	ground_moment_2_mx	ground_moment_2_my	ground_moment_2_mz
0.000000	-2.008842	385.490123	-43.494976	0.136862	0.000000	-1.032150	0.000000	3.964507	-0.000000	-12.735884	401.238806	55.539442	0.161469	0.000000	-1.417150	0.000000	-4.258589	-0.000000
0.001000	-1.988539	385.019714	-43.555152	0.132403	0.000000	-1.041588	0.000000	3.967145	-0.000000	-12.563601	402.426327	55.598871	0.161066	0.000000	-1.417408	0.000000	-4.268519	-0.000000
0.002000	-1.964786	384.564493	-43.618420	0.135445	0.000000	-1.030835	0.000000	3.969925	-0.000000	-12.386109	403.581171	55.657050	0.162745	0.000000	-1.418575	0.000000	-4.278211	-0.000000
0.003000	-1.937161	384.131777	-43.684789	0.136087	0.000000	-1.030778	0.000000	3.972809	-0.000000	-12.204190	404.692422	55.713288	0.160884	0.000000	-1.419029	0.000000	-4.287515	-0.000000
0.004000	-1.905287	383.727557	-43.754105	0.136330	0.000000	-1.036220	0.000000	3.975775	-0.000000	-12.018509	405.751657	55.766964	0.160189	0.000000	-1.417059	0.000000	-4.296336	-0.000000
0.005000	-1.868873	383.356525	-43.826023	0.135620	0.000000	-1.036341	0.000000	3.978797	-0.000000	-11.829620	406.752837	55.817493	0.160470	0.000000	-1.419714	0.000000	-4.304618	-0.000000
0.006000	-1.827823	383.021848	-43.900075	0.137304	0.000000	-1.033114	0.000000	3.981845	-0.000000	-11.638043	407.692332	55.864280	0.162225	0.000000	-1.419167	0.000000	-4.312324	-0.000000
0.007000	-1.782343	382.725115	-43.975780	0.133957	0.000000	-1.031913	0.000000	3.984908	-0.000000	-11.444285	408.569309	55.906720	0.162111	0.000000	-1.418975	0.000000	-4.319416	-0.000000
0.008000	-1.732897	382.466322	-44.052686	0.131029	0.000000	-1.036448	-0.000000	3.987981	-0.000000	-11.248794	409.385633	55.944250	0.162178	0.000000	-1.417301	0.000000	-4.325859	-0.000000
0.009000	-1.680017	382.243692	-44.130364	0.135816	0.000000	-1.033449	-0.000000	3.991050	-0.000000	-11.051946	410.144571	55.976467	0.160790	0.000000	-1.414207	0.000000	-4.331637	-0.000000
0.010000	-1.624093	382.053828	-44.208343	0.132410	0.000000	-1.030943	-0.000000	3.994111	-0.000000	-10.854111	410.849354	56.003220	0.163679	0.000000	-1.421177	0.000000	-4.336745	-0.000000
0.011000	-1.565305	381.892342	-44.285969	0.136456	0.000000	-1.041388	-0.000000	3.997185	-0.000000	-10.655750	411.502996	56.024562	0.158994	0.000000	-1.418059	0.000000	-4.341180	-0.000000
0.012000	-1.503604	381.754556	-44.362351	0.134614	0.000000	-1.034689	-0.000000	4.000298	-0.000000	-10.457412	412.108714	56.040584	0.157779	0.000000	-1.420430	0.000000	-4.344935	-0.000000
0.013000	-1.438714	381.636244	-44.436529	0.135957	0.000000	-1.029914	-0.000000	4.003465	-0.000000	-10.259655	412.669680	56.051335	0.161026	0.000000	-1.419119	0.000000	-4.348032	-0.000000
0.014000	-1.370238	381.534040	-44.507655	0.135739	0.000000	-1.032319	-0.000000	4.006694	-0.000000	-10.062977	413.188766	56.056850	0.159051	0.000000	-1.420870	0.000000	-4.350542	-0.000000
0.015000	-1.297792	381.445086	-44.574986	0.134388	0.000000	-1.034408	-0.000000	4.010007	-0.000000	-9.867768	413.668934	56.057245	0.161824	0.000000	-1.412126	0.000000	-4.352554	-0.000000
0.016000	-1.221073	381.366485	-44.637799	0.136126	0.000000	-1.032421	-0.000000	4.013439	-0.000000	-9.674248	414.113501	56.052776	0.157243	0.000000	-1.421617	0.000000	-4.354140	-0.000000
0.017000	-1.139876	381.295310	-44.695428	0.135227	0.000000	-1.031994	-0.000000	4.017013	-0.000000	-9.482422	414.526102	56.043831	0.161340	0.000000	-1.419039	0.000000	-4.355338	-0.000000
0.018000	-1.054155	381.228985	-44.747436	0.134772	0.000000	-1.032487	-0.000000	4.020695	-0.000000	-9.292134	414.910850	56.030862	0.159339	0.000000	-1.418399	0.000000	-4.356167	-0.000000
0.019000	-0.964049	381.165456	-44.793732	0.133830	0.000000	-1.035949	-0.000000	4.024390	-0.000000	-9.103168	415.272409	56.014321	0.160628	0.000000	-1.416867	0.000000	-4.356636	-0.000000
0.020000	-0.869816	381.102865	-44.834516	0.129708	0.000000	-1.036708	-0.000000	4.027989	-0.000000	-8.915305	415.615720	55.994645	0.159536	0.000000	-1.417023	0.000000	-4.356748	-0.000000
0.021000	-0.771730	381.038904	-44.870130	0.139024	0.000000	-1.026392	-0.000000	4.031424	-0.000000	-8.728344	415.945540	55.972271	0.159312	0.000000	-1.416869	0.000000	-4.356493	-0.000000
0.022000	-0.670074	380.970779	-44.900904	0.137299	0.000000	-1.033370	-0.000000	4.034642	-0.000000	-8.542081	416.266113	55.947618	0.157486	0.000000	-1.416373	0.000000	-4.355852	-0.000000
0.023000	-0.565202	380.896083	-44.927090	0.135427	0.000000	-1.031477	-0.000000	4.037581	-0.000000	-8.356301	416.580956	55.921023	0.152000	0.000000	-1.407719	0.000000	-4.354799	-0.000000
0.024000	-0.457542	380.813514	-44.948886	0.132411	0.000000	-1.032165	-0.000000	4.040163	-0.000000	-8.170777	416.892313	55.892709	0.159272	0.000000	-1.418199	0.000000	-4.353325	-0.000000
0.025000	-0.347559	380.722768	-44.966485	0.134968	0.000000	-1.031403	-0.000000	4.042320	-0.000000	-7.985254	417.200762	55.862867	0.156692	0.000000	-1.417439	0.000000	-4.351444	-0.000000
0.026000	-0.235715	380.624236	-44.980081	0.134419	0.000000	-1.031089	-0.000000	4.044005	-0.000000	-7.799463	417.505594	55.831692	0.158105	0.000000	-1.420398	0.000000	-4.349195	-0.000000
0.027000	-0.122435	380.518859	-44.989861	0.131657	0.000000	-1.034399	-0.000000	4.045193	-0.000000	-7.613165	417.805182	55.799318	0.158092	0.000000	-1.422744	0.000000	-4.346618	-0.000000
0.028000	-0.008085	380.407668	-44.995989	0.131803	0.000000	-1.029583	-0.000000	4.045874	0.000000	-7.426206	418.097075	55.765769	0.157989	0.000000	-1.415530	0.000000	-4.343740	-0.000000
0.029000	0.107072	380.290940	-44.998585	0.133785	0.000000	-1.032093	-0.000000	4.046033	0.000000	-7.238527	418.378529	55.731013	0.157107	0.000000	-1.416537	0.000000	-4.340555	-0.000000
0.030000	0.222881	380.167918	-44.997711	0.135734	0.000000	-1.034953	-0.000000	4.045636	0.000000	-7.050181	418.647329	55.695041	0.156409	0.000000	-1.417096	0.000000	-4.337043	-0.000000
0.031000	0.339204	380.037350	-44.993407	0.133673	0.000000	-1.033230	-0.000000	4.044633	0.000000	-6.861328	418.902054	55.657881	0.157405	0.000000	-1.420142	0.000000	-4.333176	-0.000000
0.032000	0.455852	379.898249	-44.985772	0.133614	0.000000	-1.022700	-0.000000	4.042967	0.000000	-6.672206	419.141635	55.619608	0.155838	0.000000	-1.417853	0.000000	-4.328931	-0.000000
0.033000	0.572600	379.750601	-44.975092	0.132470	0.000000	-1.035325	-0.000000	4.040607	0.000000	-6.483060	419.364898	55.580329	0.157507	0.000000	-1.420084	-0.000000	-4.324297	-0.000000
0.034000	0.689226	379.595734	-44.961881	0.138899	0.000000	-1.023332	-0.000000	4.037567	0.000000	-6.294118	419.570609	55.540154	0.155025	0.000000	-1.415723	-0.000000	-4.319277	-0.000000
0.035000	0.805508	379.436394	-44.946746	0.131233	0.000000	-1.028367	-0.000000	4.033871	0.000000	-6.105611	419.757619	55.499179	0.156540	0.000000	-1.420078	-0.000000	-4.313886	-0.000000
0.036000	0.921238	379.276848	-44.930145	0.134091	0.000000	-1.031954	-0.000000	4.029519	0.000000	-5.917780	419.924895	55.457463	0.155180	0.000000	-1.417663	-0.000000	-4.308154	-0.000000
0.037000	1.036273	379.122576	-44.912212	0.132064	0.000000	-1.033108	-0.000000	4.024494	0.000000	-5.730822	420.071699	55.415018	0.156840	0.000000	-1.419425	-0.000000	-4.302114	-0.000000
0.038000	1.150531	378.979299	-44.892788	0.131962	0.000000	-1.032617	-0.000000	4.018790	0.000000	-5.544856	420.197744	55.371789	0.155078	0.000000	-1.416596	-0.000000	-4.295809	-0.000000
0.039000	1.263927	378.852040	-44.871592	0.132322	0.000000	-1.033161	-0.000000	4.012409	0.000000	-5.359954	420.303253	55.327603	0.156285	0.000000	-1.415799	-0.000000	-4.289286	-0.000000
0.040000	1.376318	378.744710	-44.848356	0.124629	0.000000	-1.036227	-0.000000	4.005346	0.000000	-5.176201	420.388973	55.282169	0.155985	0.000000	-1.418750	-0.000000	-4.282606	-0.000000
0.041000	1.487518	378.659924	-44.822907	0.133369	0.000000	-1.032591	-0.000000	3.997605	0.000000	-4.993705	420.455992	55.235162	0.156702	0.000000	-1.415509	-0.000000	-4.275837	-0.000000
0.042000	1.597347	378.599093	-44.795213	0.133103	0.000000	-1.033029	-0.000000	3.989221	0.000000	-4.812598	420.505338	55.186257	0.153475	0.000000	-1.415853	-0.000000	-4.269036	-0.000000
